<svg width="51" height="39" viewBox="0 0 51 39" fill="none" xmlns="http://www.w3.org/2000/svg">
<path d="M40.1619 14.1242V15.5959L25.0154 15.5142H9.7968V14.9418C9.74871 14.6148 9.73669 14.3968 9.76073 14.2877C9.78477 14.1787 14.8697 14.1242 25.0154 14.1242H40.1619Z" fill="#EB1414"/>
<path d="M22.2765 0V2.88208H28.2269V0H30.553V2.88208H36.5575V4.04717H30.553V4.35377C30.553 4.59906 30.5169 4.86478 30.4448 5.15094C30.3727 5.43711 30.2915 5.69261 30.2014 5.91745C30.1112 6.1423 30.003 6.33648 29.8768 6.5C29.7506 6.66352 29.5793 6.8066 29.3629 6.92924C29.1465 7.05189 28.8941 7.11321 28.6056 7.11321H28.2269V4.04717H22.2765V4.29245C22.2765 4.45598 22.2495 4.70126 22.1954 5.0283C22.1413 5.35535 22.0601 5.64151 21.9519 5.88679C21.8437 6.13208 21.7085 6.35692 21.5462 6.56132C21.3839 6.76572 21.2126 6.90881 21.0323 6.99057C20.852 7.07233 20.6176 7.11321 20.3291 7.11321H19.9504V4.04717H16.9211L13.8377 3.98585V2.88208H19.9504V0H22.2765ZM22.006 7.60377C22.7634 7.60377 23.142 7.62421 23.142 7.66509C23.142 7.70598 22.7814 8.33962 22.0601 9.56604C21.1585 11.0377 20.6176 11.9371 20.4373 12.2642L19.9504 13.1226V18.1509L19.8963 23.2406L19.7881 23.6698C19.68 23.9969 19.5537 24.2728 19.4095 24.4976C19.2652 24.7225 19.112 24.8758 18.9497 24.9575C18.7874 25.0393 18.6341 25.0802 18.4899 25.0802H18.2194V15.3915L17.5703 16.0047C17.1375 16.4953 16.6867 16.9245 16.2179 17.2925C15.7491 17.7013 15.2803 18.0692 14.8114 18.3962C14.3426 18.7233 14.0812 18.8868 14.0271 18.8868C13.973 18.8868 13.8918 18.805 13.7836 18.6415L13.5673 18.3962L14.8655 16.8632C15.731 15.8821 16.29 15.228 16.5425 14.9009C16.7588 14.6148 17.0654 14.2264 17.4621 13.7358C17.8227 13.2044 18.1292 12.7547 18.3817 12.3868C18.6702 11.8553 19.157 10.956 19.8422 9.68868L20.87 7.60377H22.006ZM27.2532 7.84906L27.3073 11.5283V15.2689L27.9564 14.5943C28.3531 14.1447 28.7318 13.6745 29.0924 13.184C29.417 12.7343 29.7055 12.305 29.9579 11.8962C30.2825 11.4057 30.571 10.8947 30.8235 10.3632C31.0038 10.0362 31.139 9.81132 31.2292 9.68868C31.3193 9.56604 31.3824 9.50472 31.4185 9.50472C31.5267 9.50472 31.9053 9.56604 32.5545 9.68868C33.2397 9.77044 33.5823 9.83176 33.5823 9.87264C33.6183 9.87264 33.5823 10.0362 33.4741 10.3632C33.3659 10.6903 33.1856 11.1093 32.9331 11.6203C32.6807 12.1313 32.3922 12.6321 32.0676 13.1226C31.707 13.6541 31.3283 14.1447 30.9316 14.5943C30.571 15.044 30.2104 15.4119 29.8498 15.6981C29.5252 16.0252 29.2186 16.2909 28.9301 16.4953C28.6416 16.7406 28.281 17.0063 27.8482 17.2925L27.2532 17.5991V23.4245H33.5823V18.6415H35.5838V25.5094L35.3674 25.3868C35.2232 25.3459 35.0789 25.2846 34.9347 25.2028C34.7904 25.1211 34.6281 24.9984 34.4478 24.8349L34.1773 24.5896H30.7153C28.4072 24.5896 27.2532 24.6407 27.2532 24.7429C27.2532 24.8451 27.2171 24.8758 27.145 24.8349C27.0729 24.8349 26.8926 24.7531 26.6041 24.5896C26.3516 24.467 26.1262 24.2932 25.9279 24.0684C25.7295 23.8436 25.5943 23.6289 25.5222 23.4245C25.414 23.1792 25.3238 22.934 25.2517 22.6887C25.2156 22.4434 25.1976 21.7075 25.1976 20.4811C25.1615 19.2956 25.1255 18.7028 25.0894 18.7028C25.0894 18.7028 25.0443 18.7131 24.9542 18.7335C24.864 18.7539 24.7649 18.7846 24.6567 18.8255C24.5485 18.8664 24.4403 18.9072 24.3321 18.9481C23.9354 19.0708 23.4125 19.2138 22.7634 19.3774C22.1503 19.5409 21.7175 19.6431 21.4651 19.684L21.1946 19.7453V19.3774C21.2307 19.1321 21.2667 19.0094 21.3028 19.0094C21.3028 18.9686 21.411 18.9277 21.6274 18.8868C21.8798 18.805 22.1863 18.6824 22.547 18.5189C22.9437 18.3553 23.3584 18.1509 23.7911 17.9057C24.1518 17.7013 24.4944 17.4969 24.8189 17.2925L25.1976 17.0472V7.84906H27.2532Z" fill="black"/>
<path d="M6.31893 10.0707H7.16078V20.4875H6.31893V10.0707ZM2.32269 10.8755C3.68182 10.8755 4.65552 12.2897 4.65552 14.4972C4.65552 16.7163 3.68182 18.1305 2.32269 18.1305C0.973704 18.1305 0 16.7163 0 14.4972C0 12.2897 0.973704 10.8755 2.32269 10.8755ZM2.32269 11.7378C1.43013 11.7378 0.801277 12.8186 0.801277 14.4972C0.801277 16.1874 1.43013 17.2912 2.32269 17.2912C3.22539 17.2912 3.8441 16.1874 3.8441 14.4972C3.8441 12.8186 3.22539 11.7378 2.32269 11.7378Z" fill="black"/>
<path d="M27.2851 28.6061H28.127V39H27.2851V28.6061ZM27.9241 32.8718H29.6281V33.6766H27.9241V32.8718ZM21.027 30.2618H26.4331V31.0436H21.027V30.2618ZM23.7656 31.906C25.0639 31.906 25.997 32.8948 25.997 34.2975C25.997 35.7002 25.0639 36.689 23.7656 36.689C22.4775 36.689 21.5342 35.7002 21.5342 34.2975C21.5342 32.8948 22.4775 31.906 23.7656 31.906ZM23.7656 32.6993C22.9339 32.6993 22.3355 33.3547 22.3355 34.2975C22.3355 35.2288 22.9339 35.8956 23.7656 35.8956C24.5973 35.8956 25.1957 35.2288 25.1957 34.2975C25.1957 33.3547 24.5973 32.6993 23.7656 32.6993ZM23.3295 28.7326H24.1713V30.6182H23.3295V28.7326Z" fill="black"/>
<path d="M49.3062 14.2213H51V15.0261H49.3062V14.2213ZM48.6875 10.0707H49.5394V20.476H48.6875V10.0707ZM42.8452 11.0939H43.6871V17.5326H42.8452V11.0939ZM42.8452 17.0382H43.5755C44.9346 17.0382 46.3242 16.9347 47.8355 16.5783L47.9369 17.3717C46.3749 17.7396 44.9651 17.8431 43.5755 17.8431H42.8452V17.0382Z" fill="black"/>
</svg>
